<?xml version="1.0" encoding="utf-8"?>
<!-- Generator: Adobe Illustrator 26.0.2, SVG Export Plug-In . SVG Version: 6.00 Build 0)  -->
<svg version="1.1" xmlns="http://www.w3.org/2000/svg" xmlns:xlink="http://www.w3.org/1999/xlink" x="0px" y="0px"
	 viewBox="0 0 992.13 425.2" style="enable-background:new 0 0 992.13 425.2;" xml:space="preserve">
<style type="text/css">
	.st0{display:none;}
	.st1{display:inline;fill:#FFFFFF;}
	.st2{fill:none;stroke:#FFFFFF;stroke-width:9.198;stroke-linecap:round;stroke-linejoin:round;}
	.st3{fill:none;stroke:#000000;stroke-width:2.1045;stroke-linecap:round;}
	.st4{fill:none;stroke:#FFFFFF;stroke-width:7.7108;stroke-linecap:round;stroke-linejoin:round;}
	.st5{fill:#FFFFFF;}
	.st6{fill:none;stroke:#FFFFFF;stroke-width:1.6038;stroke-linecap:round;stroke-linejoin:round;}
	.st7{fill:none;stroke:#FFFFFF;stroke-width:0.7025;stroke-linecap:round;stroke-linejoin:round;}
	.st8{fill:none;stroke:#000000;stroke-width:4.2403;}
	.st9{fill:none;stroke:#FFFFFF;stroke-width:9.1404;stroke-linecap:round;}
	.st10{fill:none;stroke:#000000;stroke-width:18.2809;stroke-linecap:round;}
	.st11{fill-rule:evenodd;clip-rule:evenodd;}
	.st12{fill-rule:evenodd;clip-rule:evenodd;fill:#FFFFFF;}
	.st13{fill:#0000FF;}
	.st14{fill:none;stroke:#FFFFFF;stroke-width:4.2207;stroke-linecap:round;}
</style>
<g id="Layer_2" class="st0">
	<rect class="st1" width="992.13" height="425.2"/>
</g>
<g id="Layer_1">
	<path d="M404.36,343.41c0.26-0.51,0.65-1.1,0.88-1.31c0.39-0.37,38.73-21.37,40.98-22.45c1.4-0.67,2.7-0.7,4.02-0.09
		c1.22,0.57,1.95,1.47,3.31,4.11c1.07,2.07,1.14,2.28,1.13,3.43c0,2.62-0.48,3.08-6.47,6.35c-41.57,22.66-36.41,19.95-37.84,19.95
		c-2.3,0-3.29-0.82-5.11-4.2C403.73,346.36,403.53,345.06,404.36,343.41z M403.57,395.42c0.3-0.98,2.35-4.63,2.96-5.29
		c1.05-1.12,2.66-1.63,4.12-1.32c0.75,0.16,17.25,8.91,18.56,9.84c0.85,0.61,1.54,2.12,1.54,3.41c0.01,1.09,0.12,1.37,0.38,0.94
		c0.07-0.11,0.54-0.39,1.05-0.63c1.25-0.58,2.62-0.58,3.85-0.01c2.26,1.06,16.25,8.75,16.71,9.18c0.93,0.88,1.29,1.79,1.3,3.3
		c0,1.34-0.02,1.41-1.24,3.69c-1.51,2.82-1.86,3.25-3.12,3.87c-0.85,0.41-1.17,0.48-2.23,0.42c-1.22-0.07-1.33-0.12-9.47-4.52
		c-4.53-2.45-8.51-4.67-8.84-4.95c-0.87-0.72-1.43-2-1.45-3.34c-0.02-1.1-0.02-1.1-0.91-0.54c-0.8,0.5-1.04,0.55-2.37,0.55
		c-1.47,0-1.47,0-10.3-4.79c-4.85-2.63-9.06-5.01-9.34-5.27C403.66,398.93,403.12,396.88,403.57,395.42L403.57,395.42z
		 M347.86,377.36c0.42-1.38,1.61-2.68,2.85-3.11c0.59-0.21,5.29-0.25,27.64-0.25c26.93,0,26.93,0,27.75,0.38
		c1.14,0.53,2.1,1.55,2.46,2.63c0.3,0.9,0.3,0.9,2.61,0.89c2.3-0.01,2.3-0.01,2.86-0.77c1.04-1.43,1.89-1.86,3.7-1.86
		c1.58,0,1.58,0,9.77,4.43c10.03,5.43,10.28,5.63,10.28,8.53c0,0.94,0,0.94,0.91,0.33c1-0.67,2.14-0.93,3.3-0.74
		c0.85,0.14,17.36,8.98,18.29,9.8c1,0.88,1.38,1.93,1.3,3.55c-0.07,1.32-0.14,1.53-1.22,3.5c-1.51,2.75-1.83,3.15-2.96,3.71
		c-1.26,0.63-2.77,0.65-4.06,0.04c-0.5-0.23-4.43-2.32-8.73-4.64c-9.48-5.11-9.73-5.33-9.73-8.2c0-0.94,0-0.94-0.64-0.46
		c-1.2,0.92-2.95,1.24-4.26,0.79c-1.2-0.41-16.68-8.92-17.27-9.48c-0.84-0.8-1.34-1.95-1.34-3.16c-0.01-0.98-0.01-0.98-1.26-0.98
		c-1.25,0-1.25,0-1.25,0.59c0,1.41-1.14,3-2.63,3.71c-0.91,0.43-0.91,0.43-27.94,0.43c-27.03,0-27.03,0-27.98-0.47
		c-1.11-0.55-1.92-1.46-2.3-2.6C347.67,383.06,347.59,378.25,347.86,377.36z M347.96,359.89c0.36-1.12,1.18-2.06,2.31-2.62
		c0.95-0.47,0.95-0.47,27.98-0.47c27.03,0,27.03,0,27.94,0.43c1.11,0.52,1.77,1.2,2.27,2.34c0.38,0.86,0.38,0.86,1.69,0.86
		c1.31,0,1.31,0,1.32-1.14c0.01-1.31,0.43-2.27,1.38-3.17c0.33-0.32,9.8-5.59,21.04-11.71c18.97-10.33,20.51-11.14,21.49-11.23
		c2.38-0.21,3.67,0.73,5.41,3.97c1.72,3.19,1.87,4.4,0.79,6.3c-0.67,1.16-0.08,0.82-13.73,8.25c-6.31,3.43-11.84,6.44-12.29,6.69
		c-0.45,0.25-2.66,1.45-4.91,2.67c-2.25,1.22-5.73,3.12-7.73,4.2c-3.45,1.88-3.69,1.98-4.87,2.05c-1.57,0.09-3-0.53-3.75-1.62
		c-0.48-0.7-0.48-0.7-2.98-0.7c-2.5-0.01-2.5-0.01-2.5,0.63c0,1.38-0.97,2.85-2.41,3.65c-0.96,0.53-0.96,0.53-27.69,0.58
		c-29.79,0.05-27.98,0.12-29.42-1.18c-1.36-1.23-1.52-1.75-1.56-5.06C347.71,361.49,347.77,360.5,347.96,359.89L347.96,359.89z"/>
	<path d="M518.41,31.68c0.26-0.51,0.65-1.1,0.88-1.31C519.68,30,558.03,9,560.28,7.93c1.41-0.67,2.7-0.7,4.02-0.09
		c1.22,0.57,1.95,1.47,3.31,4.11c1.07,2.07,1.14,2.28,1.14,3.43c-0.01,2.61-0.48,3.08-6.47,6.34
		c-41.57,22.66-36.41,19.94-37.84,19.94c-2.3,0-3.29-0.81-5.11-4.2C517.78,34.63,517.58,33.32,518.41,31.68z M517.62,83.69
		c0.3-0.98,2.35-4.63,2.97-5.29c1.05-1.12,2.66-1.63,4.12-1.32c0.75,0.16,17.25,8.91,18.56,9.84c0.85,0.61,1.54,2.12,1.54,3.41
		c0.01,1.09,0.12,1.36,0.38,0.93c0.07-0.11,0.54-0.4,1.05-0.63c1.25-0.58,2.62-0.58,3.85-0.01c2.26,1.06,16.25,8.75,16.71,9.18
		c0.93,0.88,1.29,1.79,1.3,3.3c0,1.34-0.02,1.41-1.24,3.69c-1.51,2.82-1.85,3.25-3.12,3.88c-0.85,0.41-1.17,0.47-2.23,0.41
		c-1.22-0.07-1.33-0.12-9.47-4.52c-4.53-2.44-8.51-4.67-8.84-4.95c-0.87-0.72-1.43-2-1.45-3.34c-0.02-1.1-0.02-1.1-0.91-0.55
		c-0.8,0.5-1.04,0.55-2.37,0.55c-1.47,0-1.47,0-10.3-4.79c-4.85-2.63-9.06-5.01-9.34-5.27C517.72,87.19,517.18,85.14,517.62,83.69z
		 M461.91,65.63c0.42-1.38,1.61-2.68,2.85-3.12c0.59-0.21,5.29-0.25,27.64-0.25c26.93,0,26.93,0,27.75,0.38
		c1.15,0.54,2.1,1.55,2.46,2.63c0.3,0.91,0.3,0.91,2.61,0.89c2.3-0.01,2.3-0.01,2.85-0.77c1.04-1.44,1.89-1.86,3.7-1.86
		c1.58,0,1.58,0,9.76,4.43c10.04,5.43,10.28,5.63,10.28,8.53c0,0.95,0,0.95,0.91,0.33c1-0.67,2.14-0.92,3.3-0.74
		c0.85,0.14,17.36,8.98,18.29,9.8c1,0.88,1.38,1.93,1.3,3.55c-0.07,1.32-0.14,1.53-1.22,3.5c-1.51,2.75-1.83,3.15-2.96,3.71
		c-1.26,0.63-2.77,0.64-4.06,0.04c-0.5-0.24-4.43-2.33-8.73-4.65c-9.47-5.11-9.73-5.33-9.73-8.19c0-0.95,0-0.95-0.64-0.46
		c-1.2,0.92-2.95,1.24-4.26,0.79c-1.2-0.42-16.68-8.92-17.27-9.49c-0.84-0.8-1.34-1.95-1.34-3.15c-0.01-0.99-0.01-0.99-1.26-0.99
		c-1.25,0-1.25,0-1.25,0.59c0,1.41-1.14,3-2.63,3.71c-0.91,0.43-0.91,0.43-27.94,0.43c-27.03,0-27.03,0-27.98-0.47
		c-1.11-0.56-1.92-1.47-2.3-2.6C461.72,71.33,461.64,66.52,461.91,65.63L461.91,65.63z M462.02,48.16c0.36-1.12,1.18-2.06,2.31-2.62
		c0.95-0.47,0.95-0.47,27.98-0.47c27.03,0,27.03,0,27.94,0.43c1.11,0.52,1.77,1.2,2.27,2.34c0.38,0.87,0.38,0.87,1.69,0.86
		c1.31,0,1.31,0,1.32-1.14c0.01-1.31,0.43-2.27,1.38-3.17c0.33-0.32,9.8-5.59,21.04-11.71c18.97-10.34,20.51-11.14,21.49-11.23
		c2.38-0.22,3.67,0.73,5.41,3.96c1.72,3.19,1.87,4.41,0.79,6.3c-0.67,1.17-0.08,0.82-13.73,8.25c-6.31,3.43-11.84,6.44-12.29,6.69
		s-2.66,1.45-4.91,2.68c-2.25,1.22-5.73,3.11-7.72,4.2c-3.46,1.88-3.69,1.98-4.87,2.05c-1.56,0.09-3-0.53-3.75-1.62
		c-0.48-0.7-0.48-0.7-2.98-0.71c-2.5-0.01-2.5-0.01-2.5,0.64c0,1.38-0.97,2.85-2.41,3.65c-0.95,0.53-0.95,0.53-27.69,0.58
		c-29.79,0.05-27.97,0.12-29.42-1.18c-1.36-1.22-1.52-1.75-1.56-5.05C461.77,49.76,461.83,48.76,462.02,48.16z"/>
	<path d="M129.81,266.86c0.45,0.25,2.44,0.02,4.41-0.52c3.58-0.97,3.58-0.97,3.58-10.18c0-8.68-0.14-9.23-2.48-9.66
		c-5.91-1.06-6.34-0.38-6.34,10.12C128.98,262.01,129.35,266.61,129.81,266.86z M133.39,162.95c4.41,0,4.41,0,4.41-9.92
		c0-5.45-0.43-9.92-0.96-9.92c-0.53,0-2.51-0.31-4.41-0.69c-3.45-0.69-3.45-0.69-3.45,9.92
		C128.98,162.95,128.98,162.95,133.39,162.95z M98.54,337.07c3.57,18.18,3.57,18.18,9.8,18.51c6.22,0.33,6.22,0.33,6.55-18.73
		c0.18-10.48-0.07-19.55-0.55-20.16c-1.53-1.91-19.52-1.41-19.44,0.55C94.93,318.14,96.57,327.07,98.54,337.07z M105.01,93.29
		c7.33-0.23,10.16-0.7,10.09-1.69c-0.06-0.75-0.19-9.58-0.28-19.61c-0.16-18.24-0.16-18.24-6.5-17.91
		c-6.33,0.33-6.33,0.33-9.8,17.96c-1.9,9.7-3.52,18.52-3.59,19.6C94.83,93.42,95.8,93.58,105.01,93.29z M98.68,269.84
		c15.98,0,15.98,0,15.98-11.57c0-11.57,0-11.57-15.98-11.57c-15.98,0-15.98,0-15.98,11.57C82.7,269.84,82.7,269.84,98.68,269.84z
		 M98.6,162.95c15.91,0,15.91,0,16.26-11.12c0.19-6.11,0.14-11.32-0.11-11.57c-0.25-0.25-7.57-0.45-16.25-0.45
		c-15.79,0-15.79,0-15.79,11.57C82.7,162.95,82.7,162.95,98.6,162.95z M61.03,303.46c24.45,94.59,20.38,85.41,37.88,85.41
		c17.12,0,16.02,0.41,16.02-6.06c0-13.22,0.69-12.43-11.25-12.84c-9.15-0.32-11.22-0.72-12.47-2.43
		c-1.52-2.08-11.91-53.98-11.85-59.21c0.06-5.59,2.5-6.42,19.92-6.75c17.91-0.34,16.02,1.26,15.55-13.23
		c-0.17-5.21-0.17-5.21-21.92-5.51c-21.75-0.3-21.75-0.3-23.2-3.33c-1.36-2.85-1.89-3.03-8.63-3.03c-6.32,0-7.11,0.23-6.6,1.93
		C54.79,279.45,57.74,290.73,61.03,303.46z M61.23,133.2c6.61,0,7.27-0.21,8.21-2.69c1.72-4.54,4.24-5.03,25.89-5.03
		c20.5,0,20.5,0,20.14-8.54c-0.36-8.54-0.36-8.54-16.24-8.85c-18.08-0.35-19.88-1.06-19.8-7.85c0.1-8.74,10.58-57.7,12.68-59.24
		c1.35-0.98,5.44-1.48,12.28-1.48c10.26,0,10.26,0,10.26-9.37s0-9.37-15.8-9.37c-15.81,0-15.81,0-18.61,10.74
		c-1.54,5.91-6.12,23.64-10.19,39.4c-4.06,15.76-9.29,35.84-11.62,44.63c-2.33,8.79-4.27,16.35-4.31,16.81
		C54.08,132.82,57.28,133.2,61.23,133.2z M92.94,209.23c55.16,0,54.77,0.04,54.77-5.14c0-4.61-2-4.78-55.58-4.78
		c-51.32,0-51.32,0-51.32,4.96C40.82,209.23,40.82,209.23,92.94,209.23z M252.99,199.99c2.71-2.71,7.13-3.02,38.35-2.66
		c32.6,0.37,32.69,0.39,32.69,7.54c0,6.41-0.89,6.57-36.55,6.57c-30.11,0-32.66-0.15-34.35-2.02
		C250.84,206.9,250.77,202.21,252.99,199.99z M182.96,191.62c1.72-2.79,33.63,0.72,43.29,4.76c5.28,2.21,8.12,6.57,6.77,10.39
		c-2.24,6.38-21.81,11.67-40.87,11.04c-9.73-0.32-9.73-0.32-9.91-12.53C182.15,198.57,182.47,192.43,182.96,191.62z M42.2,184.99
		c85.59,0.09,105.03,0.59,109.36,2.75c10.87,5.45,13.73,19.77,5.76,28.84c-6.23,7.09-5.15,6.98-63.57,6.98
		c-33.53,0-52.93,0.39-52.93,1.07c0,0.59,2.85,4.28,6.34,8.21c6.34,7.14,6.34,7.14,13.7,7.19c6.41,0.05,7.45-0.23,8.06-2.14
		c1.75-5.52,1.75-5.52,37.27-5.53c100.32-0.04,224.14-7.58,231.48-14.1c3.06-2.73,5.1-8.27,5.1-13.88
		c0-10.28-4.27-15.37-13.83-16.51c-55.88-6.66-109.01-9.52-193.88-10.45c-62.79-0.69-62.79-0.69-65.01-4.23
		c-2.13-3.38-2.55-3.54-9.39-3.59c-7.16-0.05-7.16-0.05-13.45,6.84C40.69,183.59,39.87,184.99,42.2,184.99z M43.02,262.13
		c25.35,0,25.35,0,25.35-3.86c0-3.86,0-3.86-25.35-3.86c-25.34,0-25.34,0-25.34,3.86C17.68,262.13,17.68,262.13,43.02,262.13z
		 M43.02,155.24c25.35,0,25.35,0,25.35-3.86c0-3.86,0-3.86-25.35-3.86c-25.34,0-25.34,0-25.34,3.86
		C17.68,155.24,17.68,155.24,43.02,155.24z M4.61,137.05c2.16-3.64,3.09-3.82,19.41-3.84c8.64-0.01,15.7-0.34,15.7-0.72
		c0-0.68,27.04-105.89,28.22-109.77c0.5-1.65-0.18-1.93-4.76-1.93c-6.95,0-10.24-2.27-10.24-7.05c0-7.79-7.87-7.27,110.57-7.27
		c105.06,0,106.56,0.03,108.73,2.2c2.58,2.59,2.84,6.42,0.64,9.43c-1.52,2.07-3.74,2.15-72.74,2.44c-71.18,0.3-71.18,0.3-70.9,53.45
		c0.29,53.15,0.29,53.15,10.16,55.54c12.71,3.08,12.72,3.1,12.72,19.7c0,13.41,0,13.41,7.44,14.11c4.09,0.39,12.98,0.7,19.75,0.71
		c37.34,0.03,122.03,5.74,156.3,10.55c52.48,7.37,72.18,15.6,72.18,30.19c0,9.12-7.59,15.26-25.86,20.89
		c-30.68,9.47-110.38,17.23-200.33,19.52c-29.48,0.75-29.48,0.75-29.48,14.73c0,16.83,0.04,16.76-13.66,19.99
		c-9.49,2.23-9.49,2.23-9.49,55.59c0,53.36,0,53.36,70.53,53.36c69.06,0,70.57,0.04,72.73,2.2c3.07,3.06,2.79,7.09-0.67,9.81
		c-2.85,2.25-3.67,2.26-107.72,2.27c-114.82,0.01-110.06,0.29-110.71-6.43c-0.54-5.61,2.17-7.86,9.47-7.86
		c5.71,0,5.99-0.13,5.34-2.48c-0.7-2.56-19.34-74.39-25.03-96.45c-1.76-6.84-3.2-12.66-3.2-12.95c0-0.29-6.89-0.52-15.31-0.52
		c-20.94,0-20.51,0.38-20.51-17.97c0-18.63-0.22-18.39,17.38-18.39c13.18,0,13.18,0,9.19-4.41c-3.98-4.41-3.98-4.41-3.98-30.85
		c0-26.44,0-26.44,3.9-30.76c3.9-4.32,3.9-4.32-9.33-4.69C3.68,168.9,4,169.21,3.6,152.17C3.4,143.65,3.74,138.51,4.61,137.05z"/>
	<path d="M781.73,109.21c0.02-0.2,0-8.46,0-22.63c0-15.05,0-15.05-1.48-15.75c-11.64-5.53-16.48-19.55-10.71-31.04
		c2.99-5.96,8.32-10.25,14.85-11.96c2.85-0.74,7.47-0.87,10.17-0.27c13.56,2.97,21.44,16.44,17.29,29.53
		c-1.83,5.77-6.04,10.73-11.45,13.47c-1.57,0.8-1.57,0.8-1.57,16.06c0,15.26-0.21,22.76-0.21,22.76
		c-1.54-0.37-14.56-0.32-16.31-0.16C782.26,109.21,781.73,109.21,781.73,109.21z"/>
	<path d="M711.99,136.19c2.26,2.33,2.95,3.45,3.38,5.48c0.83,3.94-1.16,7.87-4.89,9.62c-1.5,0.7-4.62,0.93-6.09,0.45
		c-1.54-0.51-2.53-1.17-4.24-2.84c-1.25-1.22-0.76-2.35-0.92-2.21c-0.17,0.14-0.53,0.28-0.39,0.11c0.14-0.18-4.93-4.13-17.53-16.73
		c-17.03-17.04-17.03-17.04-18.16-16.58c-8.99,3.65-19.01,1.51-25.57-5.46c-13.5-14.35-3.84-37.82,15.88-38.6
		c15.53-0.61,27.22,14.34,22.86,29.22c-0.46,1.56-0.46,1.56,16.49,18.52"/>
	<path d="M895.12,124.03c17.67-17.67,17.67-17.67,17.16-18.92c-6.07-14.8,4.33-31.01,20.3-31.64c13.14-0.52,23.83,9.76,23.83,22.9
		c0,15.12-14.31,26.02-29.01,22.09c-0.99-0.26-1.82-0.46-1.85-0.43c-0.03,0.03-8.69,8.66-19.24,19.19
		c-21.91,21.86-19.94,20.16-23.6,20.3c-1.59,0.05-2.12,0-3.07-0.34v0c-6.21-2.2-7.86-9.47-3.31-14.52"/>
	<path d="M903.58,200.32c0.01-0.23,0.06-0.27,0.11-0.12c0.05,0.14,0.05,0.3-0.01,0.37C903.62,200.64,903.57,200.52,903.58,200.32z"
		/>
	<path d="M676.25,200.32c0.01-0.23,0.06-0.27,0.12-0.12c0.06,0.14,0.05,0.3-0.01,0.37C676.28,200.64,676.24,200.52,676.25,200.32
		L676.25,200.32z"/>
	<path d="M903.97,203.4c0.01-0.22,0.05-0.27,0.12-0.12c0.06,0.14,0.05,0.31-0.02,0.37C904,203.71,903.96,203.6,903.97,203.4z"/>
	<path d="M675.86,203.4c0.01-0.22,0.06-0.27,0.12-0.12c0.05,0.14,0.05,0.31-0.01,0.37C675.9,203.71,675.85,203.6,675.86,203.4z"/>
	<path d="M904.16,205.12c0.01-0.23,0.05-0.27,0.12-0.12c0.05,0.14,0.05,0.31-0.02,0.37C904.2,205.44,904.15,205.32,904.16,205.12z"
		/>
	<path d="M675.69,205.23c0-0.26,0.04-0.37,0.09-0.24c0.05,0.13,0.05,0.35,0,0.48C675.73,205.61,675.69,205.5,675.69,205.23z"/>
	<path d="M904.36,207.35c0-0.26,0.04-0.37,0.1-0.24c0.05,0.13,0.05,0.35,0,0.48C904.41,207.72,904.36,207.61,904.36,207.35z"/>
	<path d="M675.48,207.43c0.01-0.22,0.05-0.27,0.11-0.12c0.05,0.14,0.05,0.3-0.01,0.37C675.52,207.75,675.47,207.63,675.48,207.43z"
		/>
	<path d="M675.32,210.52c0-0.42,0.04-0.57,0.09-0.33c0.05,0.24,0.05,0.58,0,0.77C675.35,211.14,675.32,210.94,675.32,210.52z"/>
	<path d="M676.05,230.68c0.01-0.22,0.05-0.27,0.12-0.11c0.05,0.14,0.05,0.31-0.02,0.37C676.09,231,676.05,230.88,676.05,230.68z"/>
	<path d="M676.25,232.03c0.01-0.23,0.06-0.27,0.12-0.12c0.06,0.14,0.05,0.3-0.01,0.37C676.28,232.34,676.24,232.23,676.25,232.03
		L676.25,232.03z"/>
	<path d="M959.18,241.95c-7.92-0.89-14.58-5.5-18.16-12.57c-1.04-2.04-1.04-2.04-18.84-2.04c-14.06,0-17.83,0.05-17.92,0.24
		c-0.06,0.13-0.07-0.06-0.02-0.43c0.29-2.12,0.52-8.6,0.46-12.63c-0.04-2.56-0.04-4.57,0-4.47c0.04,0.12,6.13,0.19,17.81,0.19
		c17.75,0,17.75,0,18.62-1.68c7.12-13.75,25.57-16.63,36.53-5.72c4.55,4.53,6.69,9.73,6.69,16.24c0,3.37-0.2,4.66-1.12,7.42
		C979.87,236.46,969.52,243.11,959.18,241.95z"/>
	<path d="M612.24,242.79c-0.27-0.05-1.09-0.18-1.83-0.3c-11.73-1.89-20.38-13.64-18.73-25.44c2.61-18.75,25.17-26.75,38.65-13.71
		c2.31,2.23,5.55,7.1,5.55,8.34c0,0.23,2.94,0.27,19.67,0.27c19.67,0,19.67,0,19.78,6c0.1,5.3,0.27,8.09,0.61,10.57
		c0.1,0.72,0.1,0.72-20.23,0.72c-20.33,0-20.33,0-20.56,0.62c-0.85,2.34-4.97,7.14-7.71,8.98c-2.5,1.68-5.47,2.93-8.47,3.56
		C617.57,242.72,613.21,242.96,612.24,242.79z"/>
	<path d="M880.5,286.64c0-0.04,0.15-0.19,0.34-0.34c0.3-0.24,0.31-0.23,0.07,0.07C880.66,286.7,880.5,286.8,880.5,286.64z"/>
	<path d="M879.16,288.37c0-0.04,0.15-0.19,0.34-0.34c0.31-0.24,0.31-0.23,0.07,0.07C879.32,288.43,879.16,288.53,879.16,288.37z"/>
	<path d="M712.25,300.7c-0.76-0.82-0.76-0.82,0.06-0.06c0.45,0.42,0.82,0.79,0.82,0.82C713.13,301.6,712.96,301.45,712.25,300.7z"/>
	<path d="M865.52,302.57c0.25-0.26,0.5-0.48,0.55-0.48c0.05,0-0.11,0.22-0.36,0.48c-0.25,0.27-0.49,0.48-0.55,0.48
		C865.11,303.05,865.27,302.83,865.52,302.57z"/>
	<path d="M714.17,302.43c-0.56-0.62-0.56-0.62,0.06-0.06c0.58,0.53,0.71,0.68,0.56,0.68C714.77,303.05,714.48,302.77,714.17,302.43z
		"/>
	<path d="M864.07,303.82c0.19-0.21,0.39-0.38,0.45-0.38c0.05,0-0.06,0.17-0.25,0.38c-0.19,0.21-0.39,0.39-0.44,0.39
		C863.77,304.2,863.88,304.03,864.07,303.82z"/>
	<path d="M715.7,303.77c-0.36-0.43-0.36-0.43,0.07-0.07c0.41,0.34,0.52,0.5,0.37,0.5C716.1,304.2,715.91,304.01,715.7,303.77z"/>
	<path d="M862.63,305.09c0-0.04,0.15-0.19,0.34-0.34c0.3-0.24,0.31-0.23,0.07,0.07C862.79,305.14,862.63,305.25,862.63,305.09z"/>
	<path d="M716.85,304.73c-0.36-0.43-0.36-0.43,0.07-0.07c0.41,0.34,0.52,0.5,0.37,0.5C717.25,305.16,717.06,304.97,716.85,304.73z"
		/>
	<path d="M861.67,305.86c0-0.04,0.15-0.19,0.34-0.34c0.3-0.24,0.31-0.23,0.07,0.07C861.83,305.91,861.67,306.02,861.67,305.86z"/>
	<path d="M718.68,306.17c-0.24-0.3-0.23-0.31,0.07-0.07c0.32,0.25,0.42,0.41,0.26,0.41C718.97,306.51,718.82,306.36,718.68,306.17z"
		/>
	<path d="M860.71,306.63c0-0.04,0.15-0.19,0.34-0.34c0.3-0.24,0.31-0.23,0.07,0.07C860.87,306.68,860.71,306.79,860.71,306.63z"/>
	<path d="M840.73,319.11c0-0.04,0.13-0.12,0.3-0.19c0.17-0.07,0.25-0.04,0.18,0.07C841.09,319.18,840.73,319.27,840.73,319.11z"/>
	<path d="M807.45,329.63c0.14-0.05,0.3-0.05,0.37,0.01c0.07,0.07-0.05,0.11-0.25,0.1C807.34,329.73,807.29,329.69,807.45,329.63z"/>
	<path d="M806.1,329.82c0.14-0.05,0.3-0.05,0.37,0.02c0.06,0.06-0.05,0.11-0.25,0.1C805.99,329.93,805.95,329.88,806.1,329.82z"/>
	<path d="M773.62,329.82c0.14-0.05,0.3-0.05,0.37,0.02c0.06,0.06-0.05,0.11-0.25,0.1C773.52,329.93,773.47,329.88,773.62,329.82z"/>
	<path d="M804.75,330.01c0.14-0.05,0.3-0.05,0.37,0.02c0.06,0.06-0.05,0.11-0.25,0.1C804.65,330.12,804.6,330.07,804.75,330.01z"/>
	<path d="M803.22,330.2c0.14-0.05,0.3-0.05,0.37,0.02c0.06,0.06-0.05,0.11-0.25,0.1C803.11,330.31,803.07,330.27,803.22,330.2z"/>
	<path d="M776.51,330.2c0.14-0.05,0.3-0.05,0.37,0.02c0.06,0.06-0.05,0.11-0.25,0.1C776.4,330.31,776.35,330.27,776.51,330.2z"/>
	<path d="M780.34,330.59c0.13-0.05,0.35-0.05,0.48,0c0.13,0.05,0.02,0.1-0.24,0.1S780.21,330.64,780.34,330.59z"/>
	<path d="M783.13,330.78c0.19-0.05,0.44-0.04,0.57,0.01c0.13,0.05-0.02,0.09-0.34,0.09C783.05,330.87,782.94,330.83,783.13,330.78z"
		/>
	<path d="M649.06,345.02c-14.98-2.7-23.25-19.02-16.55-32.67c6.07-12.38,21.1-16.57,33.07-9.22c0.78,0.48,0.78,0.48,16.62-8.67
		c8.72-5.03,15.88-9.17,15.92-9.21c0.04-0.04-0.04-0.22-0.19-0.41c-0.24-0.31-0.24-0.32,0.06-0.08c0.29,0.22,1.18-0.24,7.3-3.77
		c8.24-4.75,8.25-4.75,10.82-4.74c2.27,0.01,3.49,0.41,5.24,1.7c3.1,2.28,4.26,7,2.59,10.55c-1.05,2.24-2.09,3.07-8.31,6.65
		c-6.4,3.68-5.69,3.2-5.36,3.62c0.25,0.32,0.24,0.32-0.14,0c-0.39-0.34-0.7-0.17-17.45,9.49c-15.34,8.86-17.03,9.88-16.93,10.24
		c0.06,0.22,0.16,1.57,0.23,3C676.58,336.12,663.43,347.61,649.06,345.02z"/>
	<path d="M915.46,361.86c-14.05-1.39-23.77-15.12-20.15-28.47c0.21-0.78,0.43-1.64,0.49-1.91c0.1-0.44-1.73-2.32-18.93-19.43
		c-18.76-18.66-19.05-18.96-19.74-20.41c-3.16-6.66,2.89-13.98,10.01-12.12c2.08,0.54,2.88,1.14,7.25,5.44
		c2.86,2.82,4.25,4.05,4.42,3.95c0.2-0.12,0.2-0.09,0.02,0.13c-0.19,0.24,2.12,2.64,14.25,14.77
		c14.48,14.48,14.48,14.48,15.46,14.06c5.03-2.17,11.58-2.36,16.73-0.5c7.15,2.59,12.52,8.5,14.57,16.04
		c0.75,2.74,0.74,8.42-0.01,11.2C936.86,355.62,926.52,362.95,915.46,361.86z"/>
	<path d="M790.57,413.25c-4.85-0.76-9.02-2.91-12.61-6.5c-10.78-10.79-8.4-28.45,4.88-36.15c1.59-0.92,1.59-0.92,1.59-20.3
		s0-19.38,5.33-19.39c4.79,0,9.93-0.21,11.48-0.48c0.57-0.1,0.57-0.1,0.52,19.19c-0.05,19.29-0.05,19.29,0.87,19.62
		c8.17,3.04,14,11.3,14.39,20.37C817.64,404.04,804.83,415.49,790.57,413.25z"/>
	<path d="M825.68,115.2c58.97,20.32,90.33,84.57,70.07,143.57c-20.26,59-84.47,90.43-143.49,70.24
		c-59.02-20.19-90.52-84.37-70.4-143.41s84.27-90.62,143.33-70.56"/>
	<path class="st2" d="M825.68,115.2c58.97,20.32,90.33,84.57,70.07,143.57c-20.26,59-84.47,90.43-143.49,70.24
		c-59.02-20.19-90.52-84.37-70.4-143.41s84.27-90.62,143.33-70.56"/>
	<path d="M757.39,271.29c5.92,10.25,5.92,10.25,5.92,10.25"/>
	<path class="st3" d="M757.39,271.29c5.92,10.25,5.92,10.25,5.92,10.25"/>
	<path d="M767.66,249.68c14.13,4.87,21.65,20.27,16.8,34.41c-4.85,14.14-20.25,21.68-34.39,16.84
		c-14.15-4.84-21.7-20.23-16.88-34.38c4.82-14.15,20.2-21.72,34.35-16.91"/>
	<path class="st4" d="M767.66,249.68c14.13,4.87,21.65,20.27,16.8,34.41c-4.85,14.14-20.25,21.68-34.39,16.84
		c-14.15-4.84-21.7-20.23-16.88-34.38c4.82-14.15,20.2-21.72,34.35-16.91"/>
	<path class="st5" d="M753.85,298.78c-6.91-1.48-13.25-6.38-16.32-12.62c-3.65-7.41-3.65-14.33,0-21.74
		c3.83-7.76,12.62-13.22,21.3-13.22c8.67,0,17.47,5.46,21.3,13.22c2.66,5.4,3.35,10.25,2.21,15.61
		C779.56,293.12,766.75,301.55,753.85,298.78z"/>
	<path class="st6" d="M753.85,298.78c-6.91-1.48-13.25-6.38-16.32-12.62c-3.65-7.41-3.65-14.33,0-21.74
		c3.83-7.76,12.62-13.22,21.3-13.22c8.67,0,17.47,5.46,21.3,13.22c2.66,5.4,3.35,10.25,2.21,15.61
		C779.56,293.12,766.75,301.55,753.85,298.78z"/>
	<path d="M756.95,286.86c-3.03-0.65-5.8-2.79-7.15-5.53c-1.6-3.25-1.6-6.28,0-9.53c1.68-3.4,5.53-5.8,9.34-5.8s7.66,2.39,9.34,5.8
		c1.16,2.36,1.47,4.49,0.97,6.84C768.22,284.39,762.6,288.08,756.95,286.86z"/>
	<path class="st7" d="M756.95,286.86c-3.03-0.65-5.8-2.79-7.15-5.53c-1.6-3.25-1.6-6.28,0-9.53c1.68-3.4,5.53-5.8,9.34-5.8
		s7.66,2.39,9.34,5.8c1.16,2.36,1.47,4.49,0.97,6.84C768.22,284.39,762.6,288.08,756.95,286.86z"/>
	<path class="st8" d="M758.94,240.08c0,70.43,0,70.71,0,70.71h1.41l32.96-7.32"/>
	<path class="st8" d="M800.35,276.42c-81.7,0-81.7,0.28-81.7,0.28l0.28,12.4"/>
	<path class="st8" d="M731.61,302.91c54.38-54.38,55.5-53.25,55.5-53.25l-15.21-18.03"/>
	<path class="st8" d="M785.7,303.75c-60.43-60.43-62.26-58.6-62.26-58.6"/>
	<path class="st5" d="M760.45,273.34c1.85,0.64,2.83,2.65,2.2,4.5c-0.63,1.85-2.65,2.83-4.49,2.2c-1.85-0.63-2.84-2.64-2.21-4.49
		c0.63-1.85,2.64-2.84,4.49-2.21"/>
	<path class="st9" d="M691.74,218.86c189.03,0,189.03,0,189.03,0"/>
	<path class="st5" d="M856.3,170.52c23.42-19.72,23.42-19.72,23.42-19.72"/>
	<path class="st10" d="M856.3,170.52c23.42-19.72,23.42-19.72,23.42-19.72"/>
	<path class="st5" d="M695.86,131.97c22.51,20.75,22.51,20.75,22.51,20.75"/>
	<path class="st10" d="M695.86,131.97c22.51,20.75,22.51,20.75,22.51,20.75"/>
	<path class="st5" d="M689.05,300.41c26.68-15.01,26.68-15.01,26.68-15.01"/>
	<path class="st10" d="M689.05,300.41c26.68-15.01,26.68-15.01,26.68-15.01"/>
	<path class="st5" d="M857.85,282.82c22.46,20.8,22.46,20.8,22.46,20.8"/>
	<path class="st10" d="M857.85,282.82c22.46,20.8,22.46,20.8,22.46,20.8"/>
	<rect x="38.93" y="166.93" class="st11" width="107.87" height="74.53"/>
	<path class="st12" d="M57.78,184.99h23.17c8.63,0,15.58,6.95,15.58,15.58v9.01c0,8.63-6.95,15.58-15.58,15.58H57.78
		c-8.63,0-15.58-6.95-15.58-15.58v-9.01C42.2,191.94,49.15,184.99,57.78,184.99z"/>
	<path class="st13" d="M154.35,208.39c-2.5,7.26-10.42,11.13-17.7,8.63c-7.27-2.5-11.14-10.41-8.65-17.68
		c2.49-7.27,10.4-11.16,17.67-8.68c7.27,2.48,11.17,10.38,8.7,17.66"/>
	<path class="st14" d="M153.12,203.93c-23.75,0-23.75,0-23.75,0"/>
	<path class="st14" d="M146.91,193.29c-11.87,20.56-11.87,20.56-11.87,20.56"/>
	<path class="st14" d="M134.93,193.91c11.87,20.56,11.87,20.56,11.87,20.56"/>
</g>
</svg>
